<svg width="270" height="34" viewBox="0 0 270 34" fill="none" xmlns="http://www.w3.org/2000/svg">
<path d="M10 17 Q 22 17 30 17 L30 27 Q 40 27 50 27 L50 7 Q 40 7 30 7 L30 17 Q 18 17 10 17 Z M60 7 L70 7 Q 77 12 80 17 Q 83 22 90 7 L100 7 L100 27 Q 93 22 90 17 Q 87 12 80 27 L70 27 Q 63 22 60 17 V27 L60 7 Z M110 7 L130 7 L130 17 Q 125 17 120 17 L120 27 Q 125 27 130 27 L130 37 L110 37 L110 27 Q 115 27 120 27 L120 17 Q 115 17 110 17 V7 Z M140 7 L160 7 L160 17 Q 155 17 150 17 L150 27 Q 155 27 160 27 L160 37 L140 37 V27 Q 145 27 150 27 V17 Q 145 17 140 17 V7 Z M170 7 L180 7 Q 187 12 190 17 Q 193 22 200 7 L210 7 L210 27 Q 203 22 190 27 Q 177 32 180 27 Q 173 22 170 17 V27 L170 7 Z M220 7 L230 7 Q 237 12 240 17 Q 243 22 250 7 L260 7 Q 253 12 250 17 L260 27 Q 253 22 250 27 L240 17 Q 237 12 230 27 L220 27 L220 7 Z" fill="white"/>
<path d="M 15 20 Q 25 20 35 20 Q 45 20 55 20 Q 65 20 75 20 Q 85 20 95 20 Q 105 20 115 20 Q 125 20 135 20 Q 145 20 155 20 Q 165 20 175 20 Q 185 20 195 20 Q 205 20 215 20 Q 225 20 235 20 Q 245 20 255 20" stroke="black" fill="transparent" stroke-width="1"/>
<path d="M265.19 33V28.644H269.326V33H265.19Z" fill="#F13024"/>
</svg>
